<svg id="Komponente_4_2" data-name="Komponente 4 – 2" xmlns="http://www.w3.org/2000/svg" width="1219" height="1219" viewBox="0 0 1219 1219">
  <rect id="Rechteck_1" data-name="Rechteck 1" width="856" height="856" rx="48" transform="translate(181 181)" fill="#8c8c8c"/>
  <g id="Komponente_2_1" data-name="Komponente 2 – 1" transform="translate(1066 254)">
    <g id="Komponente_1_1" data-name="Komponente 1 – 1" transform="translate(0 342)">
      <path id="Rechteck_11" data-name="Rechteck 11" d="M0,0H140a13,13,0,0,1,13,13v0a13,13,0,0,1-13,13H0a0,0,0,0,1,0,0V0A0,0,0,0,1,0,0Z" fill="#8c8c8c"/>
    </g>
    <g id="Komponente_1_2" data-name="Komponente 1 – 2" transform="translate(0 257)">
      <path id="Rechteck_11-2" data-name="Rechteck 11" d="M0,0H140a13,13,0,0,1,13,13v0a13,13,0,0,1-13,13H0a0,0,0,0,1,0,0V0A0,0,0,0,1,0,0Z" fill="#8c8c8c"/>
    </g>
    <g id="Komponente_1_3" data-name="Komponente 1 – 3" transform="translate(0 171)">
      <path id="Rechteck_11-3" data-name="Rechteck 11" d="M0,0H140a13,13,0,0,1,13,13v0a13,13,0,0,1-13,13H0a0,0,0,0,1,0,0V0A0,0,0,0,1,0,0Z" fill="#8c8c8c"/>
    </g>
    <g id="Komponente_1_4" data-name="Komponente 1 – 4" transform="translate(0 86)">
      <path id="Rechteck_11-4" data-name="Rechteck 11" d="M0,0H140a13,13,0,0,1,13,13v0a13,13,0,0,1-13,13H0a0,0,0,0,1,0,0V0A0,0,0,0,1,0,0Z" fill="#8c8c8c"/>
    </g>
    <g id="Komponente_1_5" data-name="Komponente 1 – 5">
      <path id="Rechteck_11-5" data-name="Rechteck 11" d="M0,0H140a13,13,0,0,1,13,13v0a13,13,0,0,1-13,13H0a0,0,0,0,1,0,0V0A0,0,0,0,1,0,0Z" fill="#8c8c8c"/>
    </g>
    <g id="Komponente_1_6" data-name="Komponente 1 – 6" transform="translate(0 428)">
      <path id="Rechteck_11-6" data-name="Rechteck 11" d="M0,0H140a13,13,0,0,1,13,13v0a13,13,0,0,1-13,13H0a0,0,0,0,1,0,0V0A0,0,0,0,1,0,0Z" fill="#8c8c8c"/>
    </g>
    <g id="Komponente_1_7" data-name="Komponente 1 – 7" transform="translate(0 514)">
      <path id="Rechteck_11-7" data-name="Rechteck 11" d="M0,0H140a13,13,0,0,1,13,13v0a13,13,0,0,1-13,13H0a0,0,0,0,1,0,0V0A0,0,0,0,1,0,0Z" fill="#8c8c8c"/>
    </g>
    <g id="Komponente_1_8" data-name="Komponente 1 – 8" transform="translate(0 599)">
      <path id="Rechteck_11-8" data-name="Rechteck 11" d="M0,0H140a13,13,0,0,1,13,13v0a13,13,0,0,1-13,13H0a0,0,0,0,1,0,0V0A0,0,0,0,1,0,0Z" fill="#8c8c8c"/>
    </g>
    <g id="Komponente_1_9" data-name="Komponente 1 – 9" transform="translate(0 685)">
      <path id="Rechteck_11-9" data-name="Rechteck 11" d="M0,0H140a13,13,0,0,1,13,13v0a13,13,0,0,1-13,13H0a0,0,0,0,1,0,0V0A0,0,0,0,1,0,0Z" fill="#8c8c8c"/>
    </g>
  </g>
  <g id="Komponente_2_2" data-name="Komponente 2 – 2" transform="translate(254 153) rotate(-90)">
    <g id="Komponente_1_1-2" data-name="Komponente 1 – 1" transform="translate(0 343)">
      <path id="Rechteck_11-10" data-name="Rechteck 11" d="M0,0H140a13,13,0,0,1,13,13v0a13,13,0,0,1-13,13H0a0,0,0,0,1,0,0V0A0,0,0,0,1,0,0Z" fill="#8c8c8c"/>
    </g>
    <g id="Komponente_1_2-2" data-name="Komponente 1 – 2" transform="translate(0 257)">
      <path id="Rechteck_11-11" data-name="Rechteck 11" d="M0,0H140a13,13,0,0,1,13,13v0a13,13,0,0,1-13,13H0a0,0,0,0,1,0,0V0A0,0,0,0,1,0,0Z" fill="#8c8c8c"/>
    </g>
    <g id="Komponente_1_3-2" data-name="Komponente 1 – 3" transform="translate(0 171)">
      <path id="Rechteck_11-12" data-name="Rechteck 11" d="M0,0H140a13,13,0,0,1,13,13v0a13,13,0,0,1-13,13H0a0,0,0,0,1,0,0V0A0,0,0,0,1,0,0Z" fill="#8c8c8c"/>
    </g>
    <g id="Komponente_1_4-2" data-name="Komponente 1 – 4" transform="translate(0 86)">
      <path id="Rechteck_11-13" data-name="Rechteck 11" d="M0,0H140a13,13,0,0,1,13,13v0a13,13,0,0,1-13,13H0a0,0,0,0,1,0,0V0A0,0,0,0,1,0,0Z" fill="#8c8c8c"/>
    </g>
    <g id="Komponente_1_5-2" data-name="Komponente 1 – 5">
      <path id="Rechteck_11-14" data-name="Rechteck 11" d="M0,0H140a13,13,0,0,1,13,13v0a13,13,0,0,1-13,13H0a0,0,0,0,1,0,0V0A0,0,0,0,1,0,0Z" fill="#8c8c8c"/>
    </g>
    <g id="Komponente_1_6-2" data-name="Komponente 1 – 6" transform="translate(0 428)">
      <path id="Rechteck_11-15" data-name="Rechteck 11" d="M0,0H140a13,13,0,0,1,13,13v0a13,13,0,0,1-13,13H0a0,0,0,0,1,0,0V0A0,0,0,0,1,0,0Z" fill="#8c8c8c"/>
    </g>
    <g id="Komponente_1_7-2" data-name="Komponente 1 – 7" transform="translate(0 514)">
      <path id="Rechteck_11-16" data-name="Rechteck 11" d="M0,0H140a13,13,0,0,1,13,13v0a13,13,0,0,1-13,13H0a0,0,0,0,1,0,0V0A0,0,0,0,1,0,0Z" fill="#8c8c8c"/>
    </g>
    <g id="Komponente_1_8-2" data-name="Komponente 1 – 8" transform="translate(0 600)">
      <path id="Rechteck_11-17" data-name="Rechteck 11" d="M0,0H140a13,13,0,0,1,13,13v0a13,13,0,0,1-13,13H0a0,0,0,0,1,0,0V0A0,0,0,0,1,0,0Z" fill="#8c8c8c"/>
    </g>
    <g id="Komponente_1_9-2" data-name="Komponente 1 – 9" transform="translate(0 685)">
      <path id="Rechteck_11-18" data-name="Rechteck 11" d="M0,0H140a13,13,0,0,1,13,13v0a13,13,0,0,1-13,13H0a0,0,0,0,1,0,0V0A0,0,0,0,1,0,0Z" fill="#8c8c8c"/>
    </g>
  </g>
  <g id="Komponente_2_3" data-name="Komponente 2 – 3" transform="translate(965 1066) rotate(90)">
    <g id="Komponente_1_1-3" data-name="Komponente 1 – 1" transform="translate(0 343)">
      <path id="Rechteck_11-19" data-name="Rechteck 11" d="M0,0H140a13,13,0,0,1,13,13v0a13,13,0,0,1-13,13H0a0,0,0,0,1,0,0V0A0,0,0,0,1,0,0Z" fill="#8c8c8c"/>
    </g>
    <g id="Komponente_1_2-3" data-name="Komponente 1 – 2" transform="translate(0 257)">
      <path id="Rechteck_11-20" data-name="Rechteck 11" d="M0,0H140a13,13,0,0,1,13,13v0a13,13,0,0,1-13,13H0a0,0,0,0,1,0,0V0A0,0,0,0,1,0,0Z" fill="#8c8c8c"/>
    </g>
    <g id="Komponente_1_3-3" data-name="Komponente 1 – 3" transform="translate(0 171)">
      <path id="Rechteck_11-21" data-name="Rechteck 11" d="M0,0H140a13,13,0,0,1,13,13v0a13,13,0,0,1-13,13H0a0,0,0,0,1,0,0V0A0,0,0,0,1,0,0Z" fill="#8c8c8c"/>
    </g>
    <g id="Komponente_1_4-3" data-name="Komponente 1 – 4" transform="translate(0 86)">
      <path id="Rechteck_11-22" data-name="Rechteck 11" d="M0,0H140a13,13,0,0,1,13,13v0a13,13,0,0,1-13,13H0a0,0,0,0,1,0,0V0A0,0,0,0,1,0,0Z" fill="#8c8c8c"/>
    </g>
    <g id="Komponente_1_5-3" data-name="Komponente 1 – 5">
      <path id="Rechteck_11-23" data-name="Rechteck 11" d="M0,0H140a13,13,0,0,1,13,13v0a13,13,0,0,1-13,13H0a0,0,0,0,1,0,0V0A0,0,0,0,1,0,0Z" fill="#8c8c8c"/>
    </g>
    <g id="Komponente_1_6-3" data-name="Komponente 1 – 6" transform="translate(0 428)">
      <path id="Rechteck_11-24" data-name="Rechteck 11" d="M0,0H140a13,13,0,0,1,13,13v0a13,13,0,0,1-13,13H0a0,0,0,0,1,0,0V0A0,0,0,0,1,0,0Z" fill="#8c8c8c"/>
    </g>
    <g id="Komponente_1_7-3" data-name="Komponente 1 – 7" transform="translate(0 514)">
      <path id="Rechteck_11-25" data-name="Rechteck 11" d="M0,0H140a13,13,0,0,1,13,13v0a13,13,0,0,1-13,13H0a0,0,0,0,1,0,0V0A0,0,0,0,1,0,0Z" fill="#8c8c8c"/>
    </g>
    <g id="Komponente_1_8-3" data-name="Komponente 1 – 8" transform="translate(0 600)">
      <path id="Rechteck_11-26" data-name="Rechteck 11" d="M0,0H140a13,13,0,0,1,13,13v0a13,13,0,0,1-13,13H0a0,0,0,0,1,0,0V0A0,0,0,0,1,0,0Z" fill="#8c8c8c"/>
    </g>
    <g id="Komponente_1_9-3" data-name="Komponente 1 – 9" transform="translate(0 685)">
      <path id="Rechteck_11-27" data-name="Rechteck 11" d="M0,0H140a13,13,0,0,1,13,13v0a13,13,0,0,1-13,13H0a0,0,0,0,1,0,0V0A0,0,0,0,1,0,0Z" fill="#8c8c8c"/>
    </g>
  </g>
  <g id="Komponente_2_4" data-name="Komponente 2 – 4" transform="translate(153 965) rotate(180)">
    <g id="Komponente_1_1-4" data-name="Komponente 1 – 1" transform="translate(0 343)">
      <path id="Rechteck_11-28" data-name="Rechteck 11" d="M0,0H140a13,13,0,0,1,13,13v0a13,13,0,0,1-13,13H0a0,0,0,0,1,0,0V0A0,0,0,0,1,0,0Z" fill="#8c8c8c"/>
    </g>
    <g id="Komponente_1_2-4" data-name="Komponente 1 – 2" transform="translate(0 257)">
      <path id="Rechteck_11-29" data-name="Rechteck 11" d="M0,0H140a13,13,0,0,1,13,13v0a13,13,0,0,1-13,13H0a0,0,0,0,1,0,0V0A0,0,0,0,1,0,0Z" fill="#8c8c8c"/>
    </g>
    <g id="Komponente_1_3-4" data-name="Komponente 1 – 3" transform="translate(0 171)">
      <path id="Rechteck_11-30" data-name="Rechteck 11" d="M0,0H140a13,13,0,0,1,13,13v0a13,13,0,0,1-13,13H0a0,0,0,0,1,0,0V0A0,0,0,0,1,0,0Z" fill="#8c8c8c"/>
    </g>
    <g id="Komponente_1_4-4" data-name="Komponente 1 – 4" transform="translate(0 86)">
      <path id="Rechteck_11-31" data-name="Rechteck 11" d="M0,0H140a13,13,0,0,1,13,13v0a13,13,0,0,1-13,13H0a0,0,0,0,1,0,0V0A0,0,0,0,1,0,0Z" fill="#8c8c8c"/>
    </g>
    <g id="Komponente_1_5-4" data-name="Komponente 1 – 5">
      <path id="Rechteck_11-32" data-name="Rechteck 11" d="M0,0H140a13,13,0,0,1,13,13v0a13,13,0,0,1-13,13H0a0,0,0,0,1,0,0V0A0,0,0,0,1,0,0Z" fill="#8c8c8c"/>
    </g>
    <g id="Komponente_1_6-4" data-name="Komponente 1 – 6" transform="translate(0 428)">
      <path id="Rechteck_11-33" data-name="Rechteck 11" d="M0,0H140a13,13,0,0,1,13,13v0a13,13,0,0,1-13,13H0a0,0,0,0,1,0,0V0A0,0,0,0,1,0,0Z" fill="#8c8c8c"/>
    </g>
    <g id="Komponente_1_7-4" data-name="Komponente 1 – 7" transform="translate(0 514)">
      <path id="Rechteck_11-34" data-name="Rechteck 11" d="M0,0H140a13,13,0,0,1,13,13v0a13,13,0,0,1-13,13H0a0,0,0,0,1,0,0V0A0,0,0,0,1,0,0Z" fill="#8c8c8c"/>
    </g>
    <g id="Komponente_1_8-4" data-name="Komponente 1 – 8" transform="translate(0 600)">
      <path id="Rechteck_11-35" data-name="Rechteck 11" d="M0,0H140a13,13,0,0,1,13,13v0a13,13,0,0,1-13,13H0a0,0,0,0,1,0,0V0A0,0,0,0,1,0,0Z" fill="#8c8c8c"/>
    </g>
    <g id="Komponente_1_9-4" data-name="Komponente 1 – 9" transform="translate(0 685)">
      <path id="Rechteck_11-36" data-name="Rechteck 11" d="M0,0H140a13,13,0,0,1,13,13v0a13,13,0,0,1-13,13H0a0,0,0,0,1,0,0V0A0,0,0,0,1,0,0Z" fill="#8c8c8c"/>
    </g>
  </g>
  <g id="bluetooth-white-18dp" transform="translate(253.989 253.989)">
    <path id="Pfad_1" data-name="Pfad 1" d="M0,0H710.6V710.6H0Z" fill="none"/>
    <path id="Pfad_2" data-name="Pfad 2" d="M381.321,171.063,212.258,2H182.65V226.727l-135.9-135.9L5,132.573l165.51,165.51L5,463.593l41.748,41.748,135.9-135.9V594.166h29.608L381.321,425.1,254.006,298.083l127.316-127.02ZM241.866,115.4l55.664,55.664-55.664,55.664ZM297.53,425.1l-55.664,55.664V369.439L297.53,425.1Z" transform="translate(143.041 57.217)" fill="#fff"/>
  </g>
</svg>
