<?xml version="1.0" standalone="no"?>
<!DOCTYPE svg PUBLIC "-//W3C//DTD SVG 20010904//EN"
 "http://www.w3.org/TR/2001/REC-SVG-20010904/DTD/svg10.dtd">
<svg version="1.0" xmlns="http://www.w3.org/2000/svg"
 width="1222.000000pt" height="1222.000000pt" viewBox="0 0 1222.000000 1222.000000"
 preserveAspectRatio="xMidYMid meet">
<metadata>
Created by potrace 1.11, written by Peter Selinger 2001-2013
</metadata>
<g transform="translate(0.000000,1222.000000) scale(0.100000,-0.100000)"
fill="#000000" stroke="none">
<path d="M5818 12214 c-2 -1 -46 -5 -98 -8 -52 -4 -117 -8 -145 -11 -139 -13
-162 -15 -185 -19 -14 -3 -50 -7 -80 -10 -30 -4 -66 -8 -80 -10 -14 -3 -79
-14 -145 -25 -66 -11 -135 -23 -154 -26 -19 -3 -37 -7 -40 -9 -3 -2 -22 -7
-41 -10 -244 -38 -856 -230 -1137 -356 -26 -12 -64 -29 -83 -37 -19 -9 -118
-56 -220 -106 -489 -239 -918 -527 -1360 -912 -117 -102 -430 -416 -515 -517
-11 -13 -56 -66 -100 -118 -153 -181 -342 -434 -444 -596 -89 -141 -149 -238
-171 -279 -12 -22 -42 -74 -65 -115 -230 -407 -463 -1007 -579 -1490 -32 -136
-56 -243 -61 -273 -3 -18 -12 -68 -20 -112 -8 -44 -17 -98 -20 -120 -4 -22 -8
-47 -10 -55 -2 -8 -7 -46 -11 -85 -3 -38 -8 -77 -9 -85 -3 -15 -11 -86 -20
-175 -20 -196 -27 -753 -11 -940 4 -49 9 -119 12 -155 2 -36 7 -81 10 -101 7
-53 12 -97 19 -159 6 -53 10 -82 21 -145 3 -16 14 -77 24 -135 22 -123 22
-126 60 -295 17 -71 37 -154 45 -182 8 -29 22 -79 31 -110 62 -223 184 -557
293 -805 133 -303 354 -702 529 -953 104 -149 133 -189 211 -290 223 -288 566
-657 787 -845 16 -14 59 -50 94 -81 87 -75 90 -77 209 -169 133 -104 342 -252
451 -320 47 -29 96 -60 110 -70 24 -16 85 -51 165 -95 22 -12 63 -35 90 -52
99 -58 444 -224 601 -289 248 -102 702 -251 881 -289 10 -2 47 -10 83 -19 36
-8 81 -18 100 -21 19 -3 51 -10 70 -15 19 -5 53 -11 75 -15 22 -3 65 -10 95
-15 55 -9 74 -12 160 -25 75 -11 91 -13 185 -24 159 -18 187 -20 335 -28 254
-14 704 -8 880 12 19 2 66 6 103 10 37 3 76 8 85 10 9 1 44 6 77 9 33 4 71 9
85 11 14 2 68 11 120 20 136 22 140 23 300 56 295 63 837 229 942 289 10 6 22
10 27 10 29 0 551 246 666 313 11 7 56 32 100 56 163 90 483 301 629 413 128
99 262 207 295 236 15 15 48 43 71 62 212 174 576 561 811 865 273 353 552
816 721 1200 22 50 48 108 58 130 57 125 176 460 243 680 49 161 115 440 142
595 20 120 21 127 30 175 4 22 9 48 11 59 2 10 6 51 10 90 3 39 8 74 10 77 2
3 6 39 10 80 3 41 8 90 9 109 20 200 26 713 11 920 -14 205 -19 257 -31 335
-3 17 -7 50 -9 75 -7 61 -13 102 -42 270 -65 371 -180 780 -322 1145 -47 122
-62 157 -130 310 -89 202 -274 544 -410 756 -130 204 -405 577 -493 669 -8 8
-39 44 -69 80 -215 253 -573 587 -876 818 -469 358 -970 639 -1529 857 -108
42 -454 158 -508 170 -12 2 -92 23 -177 45 -85 22 -171 43 -190 46 -19 3 -48
9 -65 14 -16 5 -73 16 -125 25 -52 9 -108 18 -124 21 -16 3 -32 6 -35 8 -3 2
-40 7 -81 11 -41 4 -77 8 -80 10 -3 2 -34 6 -70 9 -36 4 -76 9 -90 11 -14 2
-63 7 -110 10 -47 4 -105 9 -130 11 -45 6 -688 13 -692 8z"/>
</g>
</svg>
